<svg xmlns="http://www.w3.org/2000/svg" width="167.178" height="50" viewBox="0 0 167.178 50"><g transform="translate(-13.7 -36.7)"><g transform="translate(65.235 48.182)"><g transform="translate(0 7.792)"><path d="M189.894,124.677a5.294,5.294,0,0,1,5.372-5.431h.177V117.8h-.177a6.888,6.888,0,0,0-4.929,1.948,6.565,6.565,0,0,0-2.037,4.959v18.625h1.623v-6.877H195.5v-1.446h-5.578V124.677Z" transform="translate(-188.3 -113.136)" fill="#d0d0d3"/><rect width="1.623" height="18.241" transform="translate(10.537 11.924)" fill="#d0d0d3"/><path d="M254.682,140.8a7.341,7.341,0,0,0-6.759,3.571v-3.129H246.3v18.27h1.623V148.887a6.337,6.337,0,0,1,2.037-4.664,6.568,6.568,0,0,1,4.723-1.978,6.212,6.212,0,0,1,4.575,1.978,6.663,6.663,0,0,1,1.889,4.664v10.626h1.623V148.887a7.964,7.964,0,0,0-8.087-8.087Z" transform="translate(-229.181 -129.348)" fill="#d0d0d3"/><path d="M321.464,148.983c-.856-.531-1.712-1.033-2.538-1.505a10.854,10.854,0,0,1-2.125-1.505,2.349,2.349,0,0,1-.856-1.712,1.886,1.886,0,0,1,.738-1.535,2.629,2.629,0,0,1,1.712-.649,3.61,3.61,0,0,1,3.1,1.83l.325.472v-2.273l-.059-.059a4.145,4.145,0,0,0-3.188-1.446,4.653,4.653,0,0,0-3.04,1,3.214,3.214,0,0,0-1.21,2.509,3.832,3.832,0,0,0,.945,2.568,9.352,9.352,0,0,0,2.184,1.83c.826.5,1.682,1,2.538,1.505a8.392,8.392,0,0,1,2.125,1.8,3.881,3.881,0,0,1,.856,2.538,3.535,3.535,0,0,1-1.358,2.715,4.837,4.837,0,0,1-3.365,1.24,4.893,4.893,0,0,1-4.723-3.247l-.325.059v1.948l.03.029a4.754,4.754,0,0,0,2.1,1.919,6.675,6.675,0,0,0,3.04.708,6.152,6.152,0,0,0,4.4-1.712,5.444,5.444,0,0,0,1.83-4.132,5.048,5.048,0,0,0-.915-2.922A9.489,9.489,0,0,0,321.464,148.983Z" transform="translate(-276.335 -129.207)" fill="#d0d0d3"/><path d="M365.288,140.627a5.3,5.3,0,0,1-1.564-3.9V126.607h5.49v-1.446h-5.49V117.9H362.1v18.831a6.52,6.52,0,0,0,2.037,4.959,6.887,6.887,0,0,0,4.929,1.948h.177v-1.446h-.177A5.391,5.391,0,0,1,365.288,140.627Z" transform="translate(-310.801 -113.207)" fill="#d0d0d3"/><path d="M410.391,145.168a7.612,7.612,0,0,0-2.981-2.981,9.767,9.767,0,0,0-4.959-1.387,9.343,9.343,0,0,0-6.818,2.834,9.478,9.478,0,0,0,0,13.518,9.609,9.609,0,0,0,11.688,1.505,8.82,8.82,0,0,0,3.1-3.07v3.955h1.623v-18.27h-1.623v3.9Zm-2.273-.472a8.124,8.124,0,0,1,.029,11.423,7.633,7.633,0,0,1-5.638,2.391,8.165,8.165,0,0,1-8.087-8.058,7.924,7.924,0,0,1,2.391-5.726,7.738,7.738,0,0,1,5.667-2.45A7.644,7.644,0,0,1,408.119,144.7Z" transform="translate(-332.44 -129.348)" fill="#d0d0d3"/><path d="M479.4,141.1a9.437,9.437,0,0,0-6.966,2.834,9.129,9.129,0,0,0-2.834,6.7,9.445,9.445,0,0,0,2.8,6.759,9.028,9.028,0,0,0,6.7,2.893h.354a9.191,9.191,0,0,0,7.025-3.129l.059-.059v-2.715l-.325.472a8.991,8.991,0,0,1-3.07,2.893,7.776,7.776,0,0,1-9.534-1.328,8.053,8.053,0,0,1,0-11.452,7.776,7.776,0,0,1,9.534-1.328,8.9,8.9,0,0,1,3.07,2.863l.325.472v-2.656l-.059-.059A9.274,9.274,0,0,0,479.4,141.1Z" transform="translate(-386.572 -129.559)" fill="#d0d0d3"/><path d="M539.414,121.244l8.412-7.349h-2.155l-6.848,6.021V102H537.2v30.165h1.623v-9.179l8.855,9.179h2.184Z" transform="translate(-434.219 -102)" fill="#d0d0d3"/></g><g transform="translate(8.117)"><path d="M229.259,86.193l-3.571-9.416H224.36l-3.512,9.416-3.66-9.593H215.8l4.516,11.511h1l3.69-9.622,3.749,9.622h1L234.218,76.6H232.89Z" transform="translate(-215.8 -76.305)" fill="#fff"/><path d="M291.733,75.6a6.082,6.082,0,1,0,5.933,6.08A5.7,5.7,0,0,0,291.733,75.6Zm0,11.069c-2.833,0-4.634-1.948-4.634-4.959s1.83-4.959,4.634-4.959c2.834,0,4.634,1.948,4.634,4.959S294.537,86.668,291.733,86.668Z" transform="translate(-265.139 -75.6)" fill="#fff"/><path d="M350.76,76.6l-3.6,9.593-3.571-9.416H342.26l-3.512,9.416-3.66-9.593H333.7l4.516,11.511h.974l3.719-9.622,3.749,9.622h1L352.118,76.6Z" transform="translate(-298.901 -76.305)" fill="#fff"/></g></g><path d="M56.41,60.49H53.192l-1.564,2.715h0L46.64,71.853l-.531.945-.531-.945-4.988-8.648h0l-.531-.945h12.1L44.78,49.48,37.4,36.7l-4.486,7.7-4.457-7.7L21.079,49.48,13.7,62.261H25.8l1.564-2.715h0l5.018-8.619.531-.945.531.945,4.988,8.648h0l.531.945h-12.1L34.243,73.3l7.379,12.78,4.457-7.7,4.457,7.7L57.915,73.3l7.379-12.78H56.41ZM29.963,49.48,24.149,59.545H18.482L23.47,50.9l4.988-8.648,2.834,4.9Zm5.874,0-1.328-2.3,2.834-4.9,4.988,8.648,4.988,8.648H41.652ZM41.622,80.5l-4.988-8.648-4.988-8.648h5.667L43.127,73.27l1.328,2.3Zm13.872-8.648L50.506,80.5l-2.834-4.9L49,73.3l5.815-10.065h5.667Z" transform="translate(0 0)" fill="#fff"/></g></svg>